/* XPM */
static char *coin1672141746[] = {
/* columns rows colors chars-per-pixel */
"48 48 7 1 ",
"  c None",
". c #3F3851",
"X c #4F6DC0",
"o c #5987C6",
"O c #6198CC",
"+ c #68B8D3",
"@ c #90E3E4",
/* pixels */
"                                                ",
"                                                ",
"                                                ",
"                                                ",
"                                                ",
"                                                ",
"                                                ",
"          ............................          ",
"          ............................          ",
"          ............................          ",
"          ............................          ",
"       .......oooOOOO++++++++++@@@@@@@...       ",
"       .......oooOOOO++++++++++@@@@@@@...       ",
"       .......oooOOOO++++++++++@@@@@@@...       ",
"       .......oooOOOO++++++++++@@@@@@@...       ",
"   .......ooooOOO+++++++++++++++++@@@@@@@....   ",
"   .......ooooOOO+++++++++++++++++@@@@@@@....   ",
"   .......ooooOOO+++++++++++++++++@@@@@@@....   ",
"   .......XXXXXXXOOOOOOOOOOOOOOOOO+++++++....   ",
"   .......XXXXXXXOOOOOOOOOOOOOOOOO+++++++....   ",
"   .......XXXXXXXOOOOOOOOOOOOOOOOO+++++++....   ",
"   .......XXXXXXXOOOOOOOOOOOOOOOOO+++++++....   ",
"   .......XXXXXXXooooOOOOOOOOOOOOO+++++++....   ",
"   .......XXXXXXXooooOOOOOOOOOOOOO+++++++....   ",
"   .......XXXXXXXooooOOOOOOOOOOOOO+++++++....   ",
"   .......XXXXXXXooooOOOOOOOOOOOOO+++++++....   ",
"       .......XXXXXXXOOOOOOOOOO+++++++...       ",
"       .......XXXXXXXOOOOOOOOOO+++++++...       ",
"       .......XXXXXXXOOOOOOOOOO+++++++...       ",
"       .......XXXXXXXOOOOOOOOOO+++++++...       ",
"          .......XXXXoooOOOOOOO+++....          ",
"          .......XXXXoooOOOOOOO+++....          ",
"          .......XXXXoooOOOOOOO+++....          ",
"              .......XXXooo++++...              ",
"              .......XXXooo++++...              ",
"              .......XXXooo++++...              ",
"              .......XXXooo++++...              ",
"                 .......XXX....                 ",
"                 .......XXX....                 ",
"                 .......XXX....                 ",
"                 .......XXX....                 ",
"                     ......                     ",
"                     ......                     ",
"                     ......                     ",
"                                                ",
"                                                ",
"                                                ",
"                                                "
};
