/* XPM */
static char *left1672141746[] = {
/* columns rows colors chars-per-pixel */
"48 48 25 1 ",
"  c None",
". c #301C19",
"X c #34343A",
"o c #4B2F25",
"O c #633724",
"+ c #673D31",
"@ c #5A440D",
"# c #524238",
"$ c #53535A",
"% c #766A55",
"& c #7F7873",
"* c #8B6B1C",
"= c #8F4F34",
"- c #9C604C",
"; c #4CB528",
": c #BC8356",
"> c #AB9A6E",
", c #F1C146",
"< c #007DFF",
"1 c #8A8A8F",
"2 c #B6B6B6",
"3 c #C8BCB4",
"4 c #EFC193",
"5 c #DBDBE2",
"6 c #F1F1F1",
/* pixels */
"                                                ",
"                                                ",
"                                                ",
"                                                ",
"                      115555555                 ",
"                      1115555555                ",
"                    5555115555555               ",
"                   555555525555552              ",
"                  125555555552222$$             ",
"                  155555555522222$              ",
"                  155555444411222$              ",
"                  15$1444444411411.             ",
"                  $$$1OO44OO:11411.             ",
"                    $$O544O54111.1.             ",
"                     $;544;544.....             ",
"                     $4444444:...               ",
"                        4444:OO.                ",
"                      ##>:::>>>#                ",
"                     #>>:44>>>>>#               ",
"                    #>>>%%>>>>>>>#              ",
"                    #>>>>>>>%#>>>%%##           ",
"                    .>>>>>>%..#>%>>>#           ",
"                    ..######...#>>>##           ",
"                   ...%%%%##... =44:#           ",
"                   ...%%%%##... =444=           ",
"                  ...+333+++oo  =:44=           ",
"                  ...+++3+++**   =44=           ",
"                 ...#+333+++*,*  =44***         ",
"                 ...%%%%%%%%*,,*4444,,,*        ",
"                 ...%%%%%%%XX,,@4444,**         ",
"                 ...%%%%XXX11<<@@444***         ",
"                   .XXXX11111<<@@===            ",
"                 22111$$$$$$$*,,*               ",
"              22222$$$$$$$XXX**,*               ",
"           662221$$$$$XXXX..++***               ",
"        666661$$$$$XXXoooo..++++.               ",
"        661$$$$$XXX  .oooo. .+++o               ",
"    661$$$$$$XXX     .oooo. .+++o.              ",
"   661$$$$XXX        .oooo.  .+++.              ",
"   1XXXXXX            ..oo.  .+++.              ",
"                      ..ooo  .o++.              ",
"                      ..ooo.  .++.              ",
"                        .oo.  .++o.             ",
"                        .oo.  .++o.             ",
"                        .oo.   .++.             ",
"                      ..&&o.   .+33o            ",
"                     .+++++.   +----+           ",
"                    .++++++.   +-----++         "
};
