/* XPM */
static char *floor1672141746[] = {
/* columns rows colors chars-per-pixel */
"48 48 67 1 ",
"  c None",
". c #57331E",
"X c #57341F",
"o c #583520",
"O c #583621",
"+ c #5A3622",
"@ c #5A3722",
"# c #5A3723",
"$ c #5B3823",
"% c #5B3B27",
"& c #5C3925",
"* c #5E3B27",
"= c #5E3D28",
"- c #5F3D29",
"; c #603D2A",
": c #603E2A",
"> c #603F2A",
", c #613F2A",
"< c #613F2B",
"1 c #613F2C",
"2 c #62402C",
"3 c #62402D",
"4 c #63402D",
"5 c #62412E",
"6 c #63412E",
"7 c #63422E",
"8 c #5F584A",
"9 c #615A4F",
"0 c #645E52",
"q c #676053",
"w c #656054",
"e c #666155",
"r c #6C6458",
"t c #6C685D",
"y c #6D695F",
"u c #747065",
"i c #757167",
"p c #767268",
"a c #78746A",
"s c #79776C",
"d c #7B766E",
"f c #7B7770",
"g c #7C7871",
"h c #817E74",
"j c #827F76",
"k c #878579",
"l c #8B897E",
"z c #8D8B81",
"x c #8E8C81",
"c c #8E8C82",
"v c #8F8D83",
"b c #95938B",
"n c #96948C",
"m c #97948C",
"M c #97958C",
"N c #97958D",
"B c #98968D",
"V c #98968E",
"C c #99978E",
"Z c #9A988F",
"A c #9C9990",
"S c #9D9B92",
"D c #9F9C93",
"F c #9F9D93",
"G c #A09D93",
"H c #A3A096",
"J c #A2A09A",
/* pixels */
"  ++++++++++++++++++++++++++++++@@@@++++++++@@  ",
" +Hxxxxxkkkkxzxkkkkkkkkkkkkkkxkkkkcckkkkkcclxx@ ",
"+hHxxkkkkkkkxxkkkkkkkkkkkkkkkkkkkxkkkkkkkkkcxxy@",
"+aHxkkkkkkkkkkkkkkkkkkkkkkkkkkkkkkkkkkkkkkkklky@",
"+aBxxkkkkkkkkkkkkkkkkkkkkkkkkkkkkkkkkkkkkkkkkc0*",
"+aZxkkkkkkkkkkkkkkkkkkkkkkkkkkkkkkkkkkkkkkkkkk0;",
"+aBkkkkkkkkkkkkkkkkkkkkkkkkkkkkkkkkkkkkkkkkkkk0;",
"+aBkkkkkkkkkkkkkkkkkkkkxxkkkkkkkkkkkkkkkkkkkkk0,",
"+aNkkkkkkkkkkkkkkkkkkkkxxkkkkkkkkkkkkkkkkkkkkk01",
"+aNkkkkkkkkkkkkkkkkkkkkkkxkkkkkkkkkkkkkkkkkkkk01",
"+aNkkkkkkkkkkkkkkkkkkkkkkkkkkkkkkkkkkkkkkkkkkk01",
"+aMkkkkkkkkkkkkkkkkkkkkkkkkkkkkkkkkkkkkkkkkkkk07",
"+aMkkkkkkkkkkkkkkkkkxkkkkkkkkkkkxxkkckkkkkkkkk06",
"+aNkkkkkkkkkkkkkkkkkkkkkkkkkkkkxxxkkkkkkkkkkkk06",
"+aMkkkkkkkkkkkkdddkkkkkkkkkkkkFddZckkkkkkkkkkk06",
"+abkkkkkkkkkkkk0dakkkkkkkkkkkkB80Gkkkkkkkkkkkk06",
"+abxkkkkkkkkkkk0XakkkkkkkkkkkkB+abkkkkkkkkkkkk01",
"+abxkkkkkkkkkkkkkkkkkkkkkkkkkkkkkkkkkkkkkkkkkk07",
"+hbxxkkkkkkkkkkkkkkkkkkkkkkkkkkkkkkkxkkkkkkkkk07",
"+hbxxkkkkkkkkkkkkkkkkkkkkkkkkkkkkkkkxxkkkkkkkk07",
"+abxkkkkkkkkkkkkkkkkkkkkkkkkkkkkkkkkkzkkkkkkkke7",
"+abkkkkkkkkkkkkkkkkkkkkkkkkkkkkkkkkkkkkkkkkkkk01",
"+abkkkkkkkkkkkkkkkkkkkkkkkkkkkkkkkkkkkkkkkkkxk07",
"+abxkkkkkkkkkkkkkkkkkkkkkkkkkkkkkkkkkkkkkkkkxx07",
"+ibkkkkkkkkkkkkkkkkkkkkkkkkkkkkkkkkkkkkkkkkkxxy7",
"@ibkkkkkkkkkkkkkkkkkkkkkkkkkkkkkkkkkkkkkkkkkxzy7",
"@ubkkkkkkkkkkkkkkkkkkkkkkkkkkkkkkkkkkkkkkkxkkxy7",
"@ubkkkkkkkkkkkkkkkkkkkkkkkkkkkkkkkkkkkkkkkkkkk03",
"+ubkkkkkkkkkkkkkzzkkkkkkkkkkkkkkkkkkkkkkkkkkkk03",
"+ibkkkkkkkkkkkkbBGkkkkkkkkkkkkkNmkkkkkkkkkkkkx03",
"+umkkkkkkkkkkkk9drkkkkkkkkkkkkDddbkkkkkkkkkkxxw3",
"+umkkkkkkkkkkkk0XakkkkkkkkkkkkB+amkkkkkkkkkkkkw3",
"+ubxkkkkkkkkkkkkkkkkkkkkkkkkkkkkkkkkkkkkkkkkkk03",
"+umxkkkkkkkkkkkkkkkkkkkkkkkkkkkkkkkkkkkkkkkkkx01",
"+uMkkkkkkkkkkkkkkkkkkkkkkkkkkkkkkkkkkkkkkkkkkx01",
"+imkkkkkkkkkkkkkkkkkxxkkkkkkkkkkkkkkkkkkkkkkkk0<",
"+aAkkkkkkkkkkkkkkkkkkxkzkkkkkkkkkkkkkkkkkkkkkk0<",
"+aAkkkkkkkkkkkkkkkkkkkkkkkkkkkkkkkkkkkkkkkkkkk0<",
"+aGkkkkkkkkkkkkkkkkkkkkkkkkkkkkkkkkkkkkkkkkkkk0-",
"+aJxkkkkkkkkkkkkkkkkkkkkkkkkkkkkkkkkkkkkkkkkkk0-",
"+aJxkkkkkkkkkkkkkkkkkkkkkkkkkkkkkkkkkkkkkkkkkk0=",
"+aJkkkkkkkkkkkkkkkkkkkkkkkkkkkkkkkkkkkkkkkkkkk0*",
"+aJxkkkkkkkkkkkkkkkkkkkkkkkkkkkkkkkkkxxkkkkkkk0*",
"+aJxxkkkkkkkkkxzkkkkkkkkkkkkkkkkkkkkkkkxkkkkxx0+",
"+txxxxkkkkkkkkxxkkkkkkkkkkkkkkkkkkkkkkkkkkzzxJ9O",
"+lvhhdfdddddddfhdddddddddddddddddddddgggggfdhJaO",
" okddddddddddddddddddddddddddddddddddddddddddk+ ",
"  +o++++++++++++++++++++++++++++++++++++++++O+  "
};
