/* XPM */
static char *result[] = {
/* columns rows colors chars-per-pixel */
"48 48 219 2 ",
"   c #000000",
".  c #0C0000",
"X  c #000C00",
"o  c #0C0405",
"O  c #130101",
"+  c #1B0A0C",
"@  c #160B06",
"#  c #031C00",
"$  c #0D1A02",
"%  c #051404",
"&  c #1C1401",
"*  c #1D140D",
"=  c #131804",
"-  c #170C1A",
";  c #1B1212",
":  c #1C1914",
">  c #151915",
",  c #250401",
"<  c #230B0C",
"1  c #2A0B0A",
"2  c #2A1C03",
"3  c #271808",
"4  c #34190E",
"5  c #280C19",
"6  c #231513",
"7  c #291312",
"8  c #251A14",
"9  c #2A1B14",
"0  c #24141D",
"q  c #2A161A",
"w  c #2B1C1B",
"e  c #241A1B",
"r  c #321414",
"t  c #3A1619",
"y  c #192203",
"u  c #1E2B08",
"i  c #103903",
"p  c #282405",
"a  c #2B231B",
"s  c #272816",
"d  c #322319",
"f  c #3B2A17",
"g  c #3B311A",
"h  c #3A3713",
"j  c #302B0A",
"k  c #1D1324",
"l  c #251825",
"z  c #331E23",
"x  c #3C1D25",
"c  c #1C3026",
"v  c #2E2226",
"b  c #342524",
"n  c #3C2322",
"m  c #372828",
"M  c #39382A",
"N  c #382A31",
"B  c #48151A",
"V  c #47260D",
"C  c #44182A",
"Z  c #412627",
"A  c #402D36",
"S  c #633724",
"D  c #23491A",
"F  c #234022",
"G  c #4F4337",
"H  c #643E70",
"J  c #5A4B4C",
"K  c #5A4B5B",
"L  c #5C5858",
"P  c #6A5B5C",
"I  c #685757",
"U  c #715C5F",
"Y  c #6B675B",
"T  c #726A5F",
"R  c #554666",
"E  c #675B65",
"W  c #725763",
"Q  c #72526E",
"!  c #5E676C",
"~  c #6B6169",
"^  c #6B6865",
"/  c #736266",
"(  c #73636B",
")  c #7C6C6E",
"_  c #756C68",
"`  c #7A726E",
"'  c #6A6676",
"]  c #736873",
"[  c #7D737B",
"{  c #787676",
"}  c #905D47",
"|  c #B97A57",
" . c #847A6E",
".. c #837373",
"X. c #85767A",
"o. c #837C7A",
"O. c #8B7E7E",
"+. c #867978",
"@. c #946D76",
"#. c #A46D72",
"$. c #7F867F",
"%. c #B5E61D",
"&. c #FFF200",
"*. c #E6D23E",
"=. c #84837E",
"-. c #88827E",
";. c #858979",
":. c #94927C",
">. c #AA827F",
",. c #E8CD7E",
"<. c #775887",
"1. c #5F6688",
"2. c #7C6887",
"3. c #7D7A88",
"4. c #867D83",
"5. c #8B7E83",
"6. c #887F89",
"7. c #857D99",
"8. c #956E83",
"9. c #AA7988",
"0. c #B47295",
"q. c #8A7DAD",
"w. c #997BA0",
"e. c #7F8582",
"r. c #5487FF",
"t. c #858484",
"y. c #898283",
"u. c #8B8689",
"i. c #938484",
"p. c #938C8B",
"a. c #9B8C8E",
"s. c #958C85",
"d. c #939887",
"f. c #8C8799",
"g. c #9E8D93",
"h. c #938A9A",
"j. c #97929A",
"k. c #BD878A",
"l. c #B89699",
"z. c #AD918C",
"x. c #95A799",
"c. c #BAAB97",
"v. c #BBAB91",
"b. c #8C8AA1",
"n. c #968BA4",
"m. c #9196A3",
"M. c #9D95B9",
"N. c #B590A8",
"B. c #BCA9A3",
"V. c #B6BAA7",
"C. c #AAA6A9",
"Z. c #C1958E",
"A. c #CB9B9A",
"S. c #C59B99",
"D. c #D6979A",
"F. c #D1928F",
"G. c #C6A39D",
"H. c #C7A79C",
"J. c #C9B59D",
"K. c #D1A299",
"L. c #D79BA6",
"P. c #CC9EA2",
"I. c #C7AEA8",
"U. c #D4A2A5",
"Y. c #D4A9A9",
"T. c #C6B7A3",
"R. c #CDAFB0",
"E. c #D6B6B8",
"W. c #DAA7B6",
"Q. c #E6A3AA",
"!. c #E3ABB2",
"~. c #E8B7B9",
"^. c #CFC2AF",
"/. c #DCCAB7",
"(. c #FBDBA4",
"). c #E5C6BE",
"_. c #FEC6B6",
"`. c #F7D6BD",
"'. c #EDC0A9",
"]. c #FBE3B9",
"[. c #FFE6A9",
"{. c #B795CF",
"}. c #D596DB",
"|. c #DCB0C4",
" X c #EDBFC2",
".X c #FCBFC5",
"XX c #D8D5DA",
"oX c #DBD1CF",
"OX c #E7C5C3",
"+X c #F6CAC9",
"@X c #E7D3C6",
"#X c #FCD4CD",
"$X c #F4DDCB",
"%X c #F1D3CC",
"&X c #EAC9D9",
"*X c #F8C6D1",
"=X c #EADDDA",
"-X c #FED3D3",
";X c #FDDDD6",
":X c #F8D9D7",
">X c #EAE8C7",
",X c #F7E8CA",
"<X c #FFE2DC",
"1X c #F9E6D1",
"2X c #FCFBD4",
"3X c #E8C4EA",
"4X c #E3DDE7",
"5X c #FFDEE4",
"6X c #F2C9E1",
"7X c #E4E6E7",
"8X c #F1E6E2",
"9X c #FAE6E7",
"0X c #FEF8E6",
"qX c #E8EAF5",
"wX c #F6EDF2",
"eX c #EDF9F8",
"rX c #FDFEFF",
"tX c #F8F7F6",
"yX c None",
/* pixels */
"yXyXyXyXyXyXyXyXyXyXyXyXyXyXyXyXyXyXyXyXyXyXyXyXyXyXyXyXyXyXyXyXyXyXyXyXyXyXyXyXyXyXyXyXyXyXyXyX",
"yXyXyXyXyXyXyXyXyXyXyXyXyXyXyXyXyXyXyXyXyXyXyXyXyXyXyXyXyXyXyXyXyXyXyXyXyXyXyXyXyXyXyXyXyXyXyXyX",
"yXyXyXyXyXyXyXyXyXyXyXyXyXyXyXyXyXyX%                       yXyXyXyXyXyXyXyXyXyXyXyXyXyXyXyXyXyX",
"yXyXyXyXyXyXyXyXyXyXyXyXyXyXyXyXyXy d.s./ g.O.E g.5.a...Y :.  yXyXyXyXyXyXyXyXyXyXyXyXyXyXyXyXyX",
"yXyXyXyXyXyXyXyXyXyXyXyXyXyXyXyX$  .+.J             ..a.;.=.d.  yXyXyXyXyXyXyXyXyXyXyXyXyXyXyXyX",
"yXyXyXyXyXyXyXyXyXyXyXyXyXyXX X ;.a.U   z.0X2X,X,Xc.  ` o.j.$.L   yXyXyXyXyXyXyXyXyXyXyXyXyXyXyX",
"yXyXyXyXyXyXyXyXyXyXyXyXyXyX# X ^ ` @   X   h X     @ P 6.j.f.E   yXyXyXyXyXyXyXyXyXyXyXyXyXyXyX",
"yXyXyXyXyXyXyXyXyXyXyXyXyX  J ..  0X&.&.&.&.&.V.C.    + E L ' t.    yXyXyXyXyXyXyXyXyXyXyXyXyXyX",
"yXyXyXyXyXyXyXyXyXyXyXyXyX  d O c.  &.&.&.J.T.B.  B.I.l.* e . @ 8X  yXyXyXyXyXyXyXyXyXyXyXyXyXyX",
"yXyXyXyXyXyXyXyXyXyXyXyXyX$ p 2 2 &.&.&.T.J.S.  A.<X+X<Xc.c.c.& 0X  yXyXyXyXyXyXyXyXyXyXyXyXyXyX",
"yXyXyXyXyXyXyXyXyXyXyXyXyX$ p h &.&.&.V.    . !.+X;X-X@X$X/.2XT.    yXyXyXyXyXyXyXyXyXyXyXyXyXyX",
"yXyXyXyXyXyXyXyXyXyXyXyXyX$ a m 7 G d d | +X~.-XOXS S | 0X^.T.  :X  yXyXyXyXyXyXyXyXyXyXyXyXyXyX",
"yXyXyXyXyXyXyXyXyXyXyXyXyX$ oX9Xl.b tXT rX+X-X).;X@X .rX@X0X:.  ).  yXyXyXyXyXyXyXyXyXyXyXyXyXyX",
"yXyXyXyXyXyXyXyXyXyXyXyXyX  %.].Q.N.rXr.rX`.E.3X,.rXr.rX@X=XI.  v.  yXyXyXyXyXyXyXyXyXyXyXyXyXyX",
"yXyXyXyXyXyXyXyXyXyXyXyXyXyX  @ `.|.`.&X,X,X#XK.(.(.2X[.&X3X  *.  yXyXyXyXyXyXyXyXyXyXyXyXyXyXyX",
"yXyXyXyXyXyXyXyXyXyXyXyXyXyX%   %.x U.*X'.$X| | ~.+X&XD.V Z y y yXyXyXyXyXyXyXyXyXyXyXyXyXyXyXyX",
"yXyXyXyXyXyXyXyXyXyXyXyXyXyX  c %.<   L.+X%X9X*X_.#X{.C yXyXyXyXyXyXyXyXyXyXyXyXyXyXyXyXyXyXyXyX",
"yXyXyXyXyXyXyXyXyXyXyXyXyXyX#   >X. q     l.@.>.} V u M yXyXyXyXyXyXyXyXyXyXyXyXyXyXyXyXyXyXyXyX",
"yXyXyXyXyXyXyXyXyXyXyXyXyXyXyXyX<   M m.  9.9.#.0.  x.c X   yXyXyXyXyXyXyXyXyXyXyXyXyXyXyXyXyXyX",
"yXyXyXyXyXyXyXyXyXyXyXyXyXyXyXyX5 X d.eX. N.W.L.}.  qX3.X $   yXyXyXyXyXyXyXyXyXyXyXyXyXyXyXyXyX",
"yXyXyXyXyXyXyXyXyXyXyXyXyX$     5X  y.rX7X        XXqXh.o O     & yXyXyXyXyXyXyXyXyXyXyXyXyXyXyX",
"yXyXyXyXyXyXyXyXyXyXyXyXyXp $X;XE.  XX7XqXwXwX7X7XXX7XqX- q OX$Xg yXyXyXyXyXyXyXyXyXyXyXyXyXyXyX",
"yXyXyXyXyXyXyXyXyXyXyXyXyXp %X%XR.  4XtXtXwXwXwXrX7XrXqXd 9 T.1X3 yXyXyXyXyXyXyXyXyXyXyXyXyXyXyX",
"yXyXyXyXyXyXyXyXyXyXyXyXyXg 9X#XP.    XXtX4X4XrX7XrXrX  6 O G.;X1 yXyXyXyXyXyXyXyXyXyXyXyXyXyXyX",
"yXyXyXyXyXyXyXyXyXyXyXyXD 1XK.K.~.  m   b.n.    3.m.  N 7 7 A.!.;X  yXyXyXyXyXyXyXyXyXyXyXyXyXyX",
"yXyXyXyXyXyXyXyXyXyXyXyXc /.Z.K.A.7 6 j.M.q.q.M.q.b.j.l n C L.L.5Xs yXyXyXyXyXyXyXyXyXyXyXyXyXyX",
"yXyXyXyXyXyXyXyXyXyXyXyXs #XS.l.R.q b i.8XrX8X=XrXrXp.b 7 r W.Z.#Xp yXyXyXyXyXyXyXyXyXyXyXyXyXyX",
"yXyXyXyXyXyXyXyXyXyXyXyX4 +XA.k.z.Z           .     : 6 x Z L.F.#X2 yXyXyXyXyXyXyXyXyXyXyXyXyXyX",
"yXyXyXyXyXyXyXyXyXyXyXyX7 Q.F.k.t Z 5.5.+.* 8 / q O...-.r , B ~.U.2 yXyXyXyXyXyXyXyXyXyXyXyXyXyX",
"yXyXyXyXyXyXyXyXyXyXyXyX& F.F.F.l.7 5.-.=.8 8 w n i.s.i.n 1  X~.U.4 yXyXyXyXyXyXyXyXyXyXyXyXyXyX",
"yXyXyXyXyXyXyXyXyXyXyXyX. L.U.Z.E.* -.-.-.8 q U z p.-.-.O 7  X~.!.f yXyXyXyXyXyXyXyXyXyXyXyXyXyX",
"yXyXyXyXyXyXyXyXyXyXyXyXyX  k.G.* > t.=.-.3 q ..v y.{ s.w 6 r I.G.h yXyXyXyXyXyXyXyXyXyXyXyXyXyX",
"yXyXyXyXyXyXyXyXyXyXyXyXyXyX1 n _ > t.t.=.6 q X.e u.` t.> e P 1 r yXyXyXyXyXyXyXyXyXyXyXyXyXyXyX",
"yXyXyXyXyXyXyXyXyXyXyXyXyXyXP Y 0 - ] [ ] ; o ) v E 3.E k - l W t yXyXyXyXyXyXyXyXyXyXyXyXyXyXyX",
"yXyXyXyXyXyXyXyXyXyXyXyXyXyXa b W l ] i.g.A 6 m N [ f.K l v / q t yXyXyXyXyXyXyXyXyXyXyXyXyXyXyX",
"yXyXyXyXyXyXyXyXyXyXyXyXyXyX9 + ) ( q A m + 7 9 9 : > e ] J _ Z yXyXyXyXyXyXyXyXyXyXyXyXyXyXyXyX",
"yXyXyXyXyXyXyXyXyXyXyXyXyXyXyX9 I X.5.y.P b 6 9 s   [ t.y.i.P 7 yXyXyXyXyXyXyXyXyXyXyXyXyXyXyXyX",
"yXyXyXyXyXyXyXyXyXyXyXyXyXyXyX8 { p.[ y.^ : a yXyX  o.3.y.4.P w yXyXyXyXyXyXyXyXyXyXyXyXyXyXyXyX",
"yXyXyXyXyXyXyXyXyXyXyXyXyXyXyX= L { t.^ ^ : yXyXyX  ~ 4.] ~ ~ q yXyXyXyXyXyXyXyXyXyXyXyXyXyXyXyX",
"yXyXyXyXyXyXyXyXyXyXyXyXyXyXyX. _ Q ] ! P 3 yXyXyX  [ L R <.8.i yXyXyXyXyXyXyXyXyXyXyXyXyXyXyXyX",
"yXyXyXyXyXyXyXyXyXyXyXyXyXyXyXa ' H <.1.Q k yXyXyX  X.L 3.<.W i yXyXyXyXyXyXyXyXyXyXyXyXyXyXyXyX",
"yXyXyXyXyXyXyXyXyXyXyXyXyXyXyXyXo I ( ^ P * yXyXyX  L +.] K o yXyXyXyXyXyXyXyXyXyXyXyXyXyXyXyXyX",
"yXyXyXyXyXyXyXyXyXyXyXyXyXyXyXyXj w 6 @ s p yXyXyX  ; e - l   yXyXyXyXyXyXyXyXyXyXyXyXyXyXyXyXyX",
"yXyXyXyXyXyXyXyXyXyXyXyXyXyXyXyXv C.h.n.e.z yXyXyX  6.4.n.n.  yXyXyXyXyXyXyXyXyXyXyXyXyXyXyXyXyX",
"yXyXyXyXyXyXyXyXyXyXyXyXyXyXyXyXx   b.w.m.0 yXyXyX  f.C.b.    yXyXyXyXyXyXyXyXyXyXyXyXyXyXyXyXyX",
"yXyXyXyXyXyXyXyXyXyXyXyXyXyXyXyXyX        & yXyXyX          yXyXyXyXyXyXyXyXyXyXyXyXyXyXyXyXyXyX",
"yXyXyXyXyXyXyXyXyXyXyXyXyXyXyXyXyXyXyXyXyXyXyXyXyXyXyXyXyXyXyXyXyXyXyXyXyXyXyXyXyXyXyXyXyXyXyXyX",
"yXyXyXyXyXyXyXyXyXyXyXyXyXyXyXyXyXyXyXyXyXyXyXyXyXyXyXyXyXyXyXyXyXyXyXyXyXyXyXyXyXyXyXyXyXyXyXyX"
};
