/* XPM */
static char *result[] = {
/* columns rows colors chars-per-pixel */
"48 48 227 2 ",
"   c #000000",
".  c #0A0000",
"X  c #0E0B00",
"o  c #060805",
"O  c #140304",
"+  c #1B0303",
"@  c #140A03",
"#  c #180809",
"$  c #041500",
"%  c #0B1302",
"&  c #0D1B00",
"*  c #001E00",
"=  c #141400",
"-  c #1A140B",
";  c #1B1907",
":  c #190C16",
">  c #1C1415",
",  c #191814",
"<  c #240C00",
"1  c #250B0A",
"2  c #211600",
"3  c #2B1204",
"4  c #201C0A",
"5  c #2B1909",
"6  c #301D0A",
"7  c #341709",
"8  c #230D13",
"9  c #310E13",
"0  c #221314",
"q  c #211B15",
"w  c #241618",
"e  c #231B1C",
"r  c #2D1A19",
"t  c #331B1B",
"y  c #391819",
"u  c #310504",
"i  c #0C2101",
"p  c #052700",
"a  c #15240B",
"s  c #1B230C",
"d  c #1B2804",
"f  c #0E3101",
"g  c #1F320C",
"h  c #1B2913",
"j  c #31210D",
"k  c #322207",
"l  c #2B320B",
"z  c #34300D",
"x  c #2B2A14",
"c  c #292618",
"v  c #35211B",
"b  c #3A2718",
"n  c #392919",
"m  c #243718",
"M  c #343B15",
"N  c #23260B",
"B  c #281A25",
"V  c #321D25",
"C  c #321C2C",
"Z  c #2B2726",
"A  c #332626",
"S  c #253626",
"D  c #333629",
"F  c #372535",
"G  c #3B3338",
"H  c #41220F",
"J  c #452E13",
"K  c #422D28",
"L  c #463D24",
"P  c #402D3B",
"I  c #453837",
"U  c #384529",
"Y  c #4D5130",
"T  c #4A3B46",
"R  c #58564F",
"E  c #544F4E",
"W  c #60504F",
"Q  c #624F53",
"!  c #625A53",
"~  c #625B5E",
"^  c #665559",
"/  c #755A5F",
"(  c #556456",
")  c #66635C",
"_  c #6D685F",
"`  c #6C5B62",
"'  c #655664",
"]  c #745B6B",
"[  c #674B71",
"{  c #6B6164",
"}  c #6D656A",
"|  c #6A6866",
" . c #736364",
".. c #796967",
"X. c #74656C",
"o. c #736A6D",
"O. c #7C6C6B",
"+. c #776969",
"@. c #7E726E",
"#. c #776A74",
"$. c #7C7372",
"%. c #78787A",
"&. c #6B7668",
"*. c #B97A57",
"=. c #815E73",
"-. c #82676E",
";. c #87746E",
":. c #827474",
">. c #84757B",
",. c #847A7B",
"<. c #897D7B",
"1. c #8A7875",
"2. c #806A75",
"3. c #778776",
"4. c #89827F",
"5. c #898677",
"6. c #95887D",
"7. c #86836A",
"8. c #A4867A",
"9. c #F7AB79",
"0. c #796F85",
"q. c #847B83",
"w. c #8C7F83",
"e. c #857D8B",
"r. c #8B778A",
"t. c #947D82",
"y. c #917990",
"u. c #84618A",
"i. c #AF7B81",
"p. c #5487FF",
"a. c #8C8283",
"s. c #888986",
"d. c #928484",
"f. c #978789",
"g. c #8E9C8A",
"h. c #99938A",
"j. c #8D8B9F",
"k. c #8A8595",
"l. c #948B92",
"z. c #928D9D",
"x. c #9B8E9E",
"c. c #958796",
"v. c #949497",
"b. c #B99189",
"n. c #B4939C",
"m. c #A4988F",
"M. c #93A293",
"N. c #AEA989",
"B. c #BAA88C",
"V. c #BCB789",
"C. c #BBA795",
"Z. c #BFBB95",
"A. c #8A8DA5",
"S. c #8B88A5",
"D. c #9695A7",
"F. c #9592AD",
"G. c #A99EAC",
"H. c #A294AB",
"J. c #A39DB1",
"K. c #A5A3A9",
"L. c #C9979D",
"P. c #C5989C",
"I. c #D2959E",
"U. c #C28E91",
"Y. c #C3AF9E",
"T. c #CABD97",
"R. c #C89DA4",
"E. c #D39DA4",
"W. c #C9A4A7",
"Q. c #CEA0A9",
"!. c #C4A9A7",
"~. c #DCA7AD",
"^. c #D4A8A7",
"/. c #CAB5A9",
"(. c #D4BDA5",
"). c #D7B5AF",
"_. c #DBACB2",
"`. c #D4B3BA",
"'. c #E1AFB0",
"]. c #EBB8B7",
"[. c #D9C9BC",
"{. c #D6CDA9",
"}. c #E7C0AF",
"|. c #E4C5BF",
" X c #E7C7B9",
".X c #F0CCBD",
"XX c #F1DCBF",
"oX c #E1D5A6",
"OX c #EDE0AD",
"+X c #E0E2BB",
"@X c #A8AAC0",
"#X c #DCD7C9",
"$X c #D8CECD",
"%X c #EBCEC4",
"&X c #E7CDCD",
"*X c #F5CAC9",
"=X c #FFCFCC",
"-X c #F5CBC5",
";X c #F3D3CA",
":X c #FEDDCD",
">X c #F7D6CB",
",X c #F7CAD3",
"<X c #FFDDDA",
"1X c #F9D7D3",
"2X c #E8D4D2",
"3X c #FDE6CE",
"4X c #FAE9C8",
"5X c #FFEBDD",
"6X c #F9E8D7",
"7X c #FDFCD2",
"8X c #FEF2DC",
"9X c #FFFFDB",
"0X c #E8EECC",
"qX c #DFD8E6",
"wX c #F0D8E2",
"eX c #E6E5E6",
"rX c #F6E8EA",
"tX c #FEFCE4",
"yX c #FAF4E8",
"uX c #F5EDFB",
"iX c #EAF1F9",
"pX c #E6F6F2",
"aX c #F7F5FB",
"sX c #FFF5FE",
"dX c #FFFCFE",
"fX c #FAFFF5",
"gX c None",
/* pixels */
"gXgXgXgXgXgXgXgXgXgXgXgXgXgXgXgXgXgXgXgXd = M L d M gXgXgXgXgXgXgXgXgXgXgXgXgXgXgXgXgXgXgXgXgXgX",
"gXgXgXgXgXgXgXgXgXgXgXgXgXgXgXgXgXgXN n ;.W -.h.6.6.; l $ gXgXgXgXgXgXgXgXgXgXgXgXgXgXgXgXgXgXgX",
"gXgXgXgXgXgXgXgXgXgXgXgXgXgXgXgXgXm 3.( s.s.%.%.3.3.g.) 3.m gXgXgXgXgXgXgXgXgXgXgXgXgXgXgXgXgXgX",
"gXgXgXgXgXgXgXgXgXgXgXgXgXgXgXgXa - ; c t d.-.>.1.;.<.y.) ) h gXgXgXgXgXgXgXgXgXgXgXgXgXgXgXgXgX",
"gXgXgXgXgXgXgXgXgXgXgXgXgXgXgX- q #X8X[.m.G W W _ ! s.~ :.1.- gXgXgXgXgXgXgXgXgXgXgXgXgXgXgXgXgX",
"gXgXgXgXgXgXgXgXgXgXgXgXgXgX$ c 6XT.N.{.C.t + Q :.@ S - d.R O.D gXgXgXgXgXgXgXgXgXgXgXgXgXgXgXgX",
"gXgXgXgXgXgXgXgXgXgXgXgXgXi & #XN.V.4X3X3 3 /.I r $.G eXA O.^ X.s gXgXgXgXgXgXgXgXgXgXgXgXgXgXgX",
"gXgXgXgXgXgXgXgXgXgXgXgXgX& s x Z.+X+X3 B.b.1X2X/.O eXc @ y t.#.% gXgXgXgXgXgXgXgXgXgXgXgXgXgXgX",
"gXgXgXgXgXgXgXgXgXgXgXgXgXl & V.9X3Xy ^.b.5X5X.X!.[.4 7.tX!.r +.a gXgXgXgXgXgXgXgXgXgXgXgXgXgXgX",
"gXgXgXgXgXgXgXgXgXgXgXgXU +X9XOX4Xt E._.=X:X}.5X6X/.8Xz V.(.x ) m gXgXgXgXgXgXgXgXgXgXgXgXgXgXgX",
"gXgXgXgXgXgXgXgXgXgXgXp 0X7X7XJ b *.,X=X*.*.*.3X3X(.B.0X2 L 5.4 gXgXgXgXgXgXgXgXgXgXgXgXgXgXgXgX",
"gXgXgXgXgXgXgXgXgXgXgXgXgX& N 6 ~.,XyX1XsXY 9X X(.(.8Xn 6XO ..@.h.m gXgXgXgXgXgXgXgXgXgXgXgXgXgX",
"gXgXgXgXgXgXgXgXgXgXgXgXgXgXgX@ 7 1X<X|.[.p.8X>X.X3X8.Y./.+ ] r.X.D gXgXgXgXgXgXgXgXgXgXgXgXgXgX",
"gXgXgXgXgXgXgXgXgXgXgXgXgXgXgX= 3 ^.=X;X2X>X-X=X-XXXk T.J =.u.[ l.x gXgXgXgXgXgXgXgXgXgXgXgXgXgX",
"gXgXgXgXgXgXgXgXgXgXgXgXgXgXgX& 6 %X9.9.).;X=X=X-XH + oXn ` [ 0.,.% gXgXgXgXgXgXgXgXgXgXgXgXgXgX",
"gXgXgXgXgXgXgXgXgXgXgXgXgXgXgXgXgX<  X=X5X%X<Xb v %Xx M Y _ ~ R m gXgXgXgXgXgXgXgXgXgXgXgXgXgXgX",
"gXgXgXgXgXgXgXgXgXgXgXgXgXgXgXgXgXb 8.< n 3 u '.~.F q gXgXgXgXgXgXgXgXgXgXgXgXgXgXgXgXgXgXgXgXgX",
"gXgXgXgXgXgXgXgXgXgXgXgXgXgXgXgXgXgX1 9 t i.R.n.  c.K.c gXgXgXgXgXgXgXgXgXgXgXgXgXgXgXgXgXgXgXgX",
"gXgXgXgXgXgXgXgXgXgXgXgXgXgXgXgXgXgXV -.`._.2X  sXr.sX;X= gXgXgXgXgXgXgXgXgXgXgXgXgXgXgXgXgXgXgX",
"gXgXgXgXgXgXgXgXgXgXgXgXgXgXgXgXgX& yX  $XdX  2Xf.8 wXrX5X& gXgXgXgXgXgXgXgXgXgXgXgXgXgXgXgXgXgX",
"gXgXgXgXgXgXgXgXgXgXgXgXgXgXgXgXgX& fX      fXsXf.F R.,X1XX gXgXgXgXgXgXgXgXgXgXgXgXgXgXgXgXgXgX",
"gXgXgXgXgXgXgXgXgXgXgXgXgXgXgXgXo K.iXiXiXiXdX0.#.C `.I.-X6 gXgXgXgXgXgXgXgXgXgXgXgXgXgXgXgXgXgX",
"gXgXgXgXgXgXgXgXgXgXgXgXgXgXgXgX% K.j.j.A.A.@XF.k.P n.i.<X%X; gXgXgXgXgXgXgXgXgXgXgXgXgXgXgXgXgX",
"gXgXgXgXgXgXgXgXgXgXgXgXgXgXgXgXgX- j.j.S.S.F.J.J.x.+ U.^.[.@ gXgXgXgXgXgXgXgXgXgXgXgXgXgXgXgXgX",
"gXgXgXgXgXgXgXgXgXgXgXgXgXgXgXgXgX> s.e.j.F.S.S.H.H.C U.~.*X3 gXgXgXgXgXgXgXgXgXgXgXgXgXgXgXgXgX",
"gXgXgXgXgXgXgXgXgXgXgXgXgXgXgXM &.I rXx.0.D.0.#.x.A V R.R.,X2 gXgXgXgXgXgXgXgXgXgXgXgXgXgXgXgXgX",
"gXgXgXgXgXgXgXgXgXgXgXgXgXgXgX  A 0 > dXdXaXz.: o O.V R.L.-X5 gXgXgXgXgXgXgXgXgXgXgXgXgXgXgXgXgX",
"gXgXgXgXgXgXgXgXgXgXgXgXgXgX  h.8 f.v R 4.Z s.l.#.;.1 E.E.L.j gXgXgXgXgXgXgXgXgXgXgXgXgXgXgXgXgX",
"gXgXgXgXgXgXgXgXgXgXgXgXgXgX  w.V ` - 6.  $.Y ^ @.K + U.E.E.6 gXgXgXgXgXgXgXgXgXgXgXgXgXgXgXgXgX",
"gXgXgXgXgXgXgXgXgXgXgXgXgX    f./ - # m.  h.  >.O.V ;X~.E.'.6 gXgXgXgXgXgXgXgXgXgXgXgXgXgXgXgXgX",
"gXgXgXgXgXgXgXgXgXgXgXgXgX  a.>.+.0 @ m.:.,.w 8 r &XW.E.I.].< gXgXgXgXgXgXgXgXgXgXgXgXgXgXgXgXgX",
"gXgXgXgXgXgXgXgXgXgXgXgXgX    2.` . 0 4.<.:.t / + `.W.L.~.b.k gXgXgXgXgXgXgXgXgXgXgXgXgXgXgXgXgX",
"gXgXgXgXgXgXgXgXgXgXgXgXgXgX  q.+.O B | %.{ > w Q t.A 8 9 ;.= gXgXgXgXgXgXgXgXgXgXgXgXgXgXgXgXgX",
"gXgXgXgXgXgXgXgXgXgXgXgXgXgXx w O ,.Z | &.' > o.X.d.,.F gXgXgXgXgXgXgXgXgXgXgXgXgXgXgXgXgXgXgXgX",
"gXgXgXgXgXgXgXgXgXgXgXgXgXgXgXc @.X.> v.o.| , { s.#.+.Z gXgXgXgXgXgXgXgXgXgXgXgXgXgXgXgXgXgXgXgX",
"gXgXgXgXgXgXgXgXgXgXgXgXgXgXgXm 5.a.' > B   ' s.q.s.}   gXgXgXgXgXgXgXgXgXgXgXgXgXgXgXgXgXgXgXgX",
"gXgXgXgXgXgXgXgXgXgXgXgXgXgXgX  h.5.l.} : . ,.l.l.w.'   gXgXgXgXgXgXgXgXgXgXgXgXgXgXgXgXgXgXgXgX",
"gXgXgXgXgXgXgXgXgXgXgXgXgXgXgX  @.D.q.X.{ q 4.,.w.l. .  gXgXgXgXgXgXgXgXgXgXgXgXgXgXgXgXgXgXgXgX",
"gXgXgXgXgXgXgXgXgXgXgXgXgXgXgXgX  k.e.' %.w +.f.d.$.`   gXgXgXgXgXgXgXgXgXgXgXgXgXgXgXgXgXgXgXgX",
"gXgXgXgXgXgXgXgXgXgXgXgXgXgXgXgX  ` ^ ' X.r  . .~ ` `   gXgXgXgXgXgXgXgXgXgXgXgXgXgXgXgXgXgXgXgX",
"gXgXgXgXgXgXgXgXgXgXgXgXgXgXgXgXgX  X.u.e # `  .` ` X.  gXgXgXgXgXgXgXgXgXgXgXgXgXgXgXgXgXgXgXgX",
"gXgXgXgXgXgXgXgXgXgXgXgXgXgXgXgXgX. P : T r ,.$.>.#.T   gXgXgXgXgXgXgXgXgXgXgXgXgXgXgXgXgXgXgXgX",
"gXgXgXgXgXgXgXgXgXgXgXgXgXgXgXgXgXq sXG.q.G B | ^ ' w.D gXgXgXgXgXgXgXgXgXgXgXgXgXgXgXgXgXgXgXgX",
"gXgXgXgXgXgXgXgXgXgXgXgXgXgXgX% fXpXD.A.0.G E qXs.k.K.U gXgXgXgXgXgXgXgXgXgXgXgXgXgXgXgXgXgXgXgX",
"gXgXgXgXgXgXgXgXgXgXgXgXgXgXgXh s.D.k.e.B F sXc.sXz.%.a gXgXgXgXgXgXgXgXgXgXgXgXgXgXgXgXgXgXgXgX",
"gXgXgXgXgXgXgXgXgXgXgXgXgXgXgXgXi % h o aXdXqXaXj.v.S gXgXgXgXgXgXgXgXgXgXgXgXgXgXgXgXgXgXgXgXgX",
"gXgXgXgXgXgXgXgXgXgXgXgXgXgXgXgXgXgXgXm g.&.M.3.M.S gXgXgXgXgXgXgXgXgXgXgXgXgXgXgXgXgXgXgXgXgXgX",
"gXgXgXgXgXgXgXgXgXgXgXgXgXgXgXgXgXgXgXgXf o a * p gXgXgXgXgXgXgXgXgXgXgXgXgXgXgXgXgXgXgXgXgXgXgX"
};
