/* XPM */
static char *open1672141746[] = {
/* columns rows colors chars-per-pixel */
"48 48 12 1 ",
"  c None",
". c #6E5967",
"X c #926475",
"o c #AD707B",
"O c #D2727E",
"+ c #5D7889",
"@ c #728896",
"# c #86A0A8",
"$ c #E28989",
"% c #EDA799",
"& c #FBCAAE",
"* c #FAEBCF",
/* pixels */
"         ..............................         ",
"       ..&%..%&&&*&**&%.%&&&*&***&%..%&..       ",
"     ..%&&&..&&&&&&&&&&.&&&&&&&&&&&..&&&%..     ",
"   .%*&&&&%..%&&&&&&&&%.%&&&&&&&&&%..%&&&&*%.   ",
"  .%*&&&%$$..$$$$$$$$$$.$$$$$$$$$$$..$$%&&&*%.  ",
"  .&&&&%$$O..........................O$$%&&&&.  ",
" .%&&&%$$....oX..................Xo....$$%&&&%. ",
" .&&&&$$...XXoo..................ooXX...$$&&&&. ",
".%&&&%$..................................$%&&&%.",
".&&&&$..Xooooo.....................ooooX..$&&&&.",
".%&&%$..oooooX.....................XXooo..$%&&%.",
"................................................",
".%&&%$...XooooX...................XoooX...$%&&%.",
".&&&&$.#+.ooooo...................oooo.+#.$&&&&.",
".*&&&$.#@.ooooo...................oooo.@#.$&&&*.",
".&&&&$.XooooooX...................XoooooX.$&&&&.",
".*&&&$....................................$&&&*.",
".&&&&$...........................XooooooX.$&&&&.",
".&&&&$.XoooooX...................oooooooo.$&&&&.",
".&&&&$.ooooooo...................oooooooo.$&&&&.",
".%&&%$.XoooooX...................XooooooX.$%&&%.",
".%&&%$.XoooXX........................XooX.$%&&%.",
".&&&&$.oooooo........................oooo.$&&&&.",
".*&&&$.oooooo........................oooo.$&&&*.",
".*&&&$.XoooXX..@@...............@@...XooX.$&&&*.",
".&&&&$.........+@...............@+........$&&&&.",
".*&&&$.........+@...............@+....XoX.$&&&*.",
".&&&&$..ooo....+@...............@+....ooo.$&&&&.",
".&&&&$..Xoo....+@...............@+....XoX.$&&&&.",
".%&&%$.........+@...............@+........$%&&%.",
".......XoooXX..+@...............@+..............",
".%&&%$.oooooo..+@...............@+...XoX..$%&&%.",
".&&&&$.oooooo..+@...............@+...ooo..$&&&&.",
".*&&&$.........+@...............@+........$&&&*.",
".&&&&$.XoooXX..+@...............@+.XXoooX.$&&&&.",
".*&&&$...Xooo......................oooX...$&&&*.",
".&&&&$.#@.ooo......................ooo.@#.$&&&&.",
".&&&&$.#+.ooo......................ooo.+#.$&&&&.",
".&&&&$...XoXX......................XXoX...$&&&&.",
".......XoooooX....................XoooooX.......",
".%&&%$.ooooooo....................ooooooo.$%&&%.",
".&&&&$.XoooooX....................ooooooo.$&&&&.",
".*&&&$............................XoooooX.$&&&*.",
".*&&&$....................................$&&&*.",
".&&&&$.XoooXX.............................$&&&&.",
".$$$$O.XoooXX......................ooooX..O$$$$.",
"................................................",
"................................................"
};
