/* XPM */
static char *player1672141746[] = {
/* columns rows colors chars-per-pixel */
"48 48 25 1 ",
"  c None",
". c #301C19",
"X c #34343A",
"o c #4B2F25",
"O c #633724",
"+ c #673D31",
"@ c #5A440D",
"# c #524238",
"$ c #53535A",
"% c #766A55",
"& c #7F7873",
"* c #8B6B1C",
"= c #8F4F34",
"- c #9C604C",
"; c #4CB528",
": c #BC8356",
"> c #AB9A6E",
", c #F1C146",
"< c #007DFF",
"1 c #8A8A8F",
"2 c #B6B6B6",
"3 c #C8BCB4",
"4 c #EFC193",
"5 c #DBDBE2",
"6 c #F1F1F1",
/* pixels */
"                                                ",
"                                                ",
"                                                ",
"                                                ",
"                 555555511                      ",
"                5555555111                      ",
"               5555555115555                    ",
"              255555525555555                   ",
"             $$222255555555521                  ",
"              $222225555555551                  ",
"              $222114444555551                  ",
"             .1141144444441$51                  ",
"             .11411:OO44OO1$$$                  ",
"             .1.11145O445O$$                    ",
"             .....445;445;$                     ",
"               ...:4444444$                     ",
"                .OO:4444                        ",
"                #>>>:::>##                      ",
"               #>>>>>44:>>#                     ",
"              #>>>>>>>%%>>>#                    ",
"           ##%%>>>#%>>>>>>>#                    ",
"           #>>>%>#..%>>>>>>.                    ",
"           ##>>>#...######..                    ",
"           #:44= ...##%%%%...                   ",
"           =444= ...##%%%%...                   ",
"           =44:=  oo+++333+...                  ",
"           =44=   **+++3+++...                  ",
"         ***44=  *,*+++333+#...                 ",
"        *,,,4444*,,*%%%%%%%%...                 ",
"         **,4444@,,XX%%%%%%%...                 ",
"         ***444@@<<11XXX%%%%...                 ",
"            ===@@<<11111XXXX.                   ",
"               *,,*$$$$$$$11122                 ",
"               *,**XXX$$$$$$$22222              ",
"               ***++..XXXX$$$$$122266           ",
"               .++++..ooooXXX$$$$$166666        ",
"               o+++. .oooo.  XXX$$$$$166        ",
"              .o+++. .oooo.     XXX$$$$$$166    ",
"              .+++.  .oooo.        XXX$$$$166   ",
"              .+++.  .oo..            XXXXXX1   ",
"              .++o.  ooo..                      ",
"              .++.  .ooo..                      ",
"             .o++.  .oo.                        ",
"             .o++.  .oo.                        ",
"             .++.   .oo.                        ",
"            o33+.   .o&&..                      ",
"           +----+   .+++++.                     ",
"         ++-----+   .++++++.                    "
};
