/* XPM */
static char *result[] = {
/* columns rows colors chars-per-pixel */
"48 48 227 2 ",
"   c #000000",
".  c #0A0000",
"X  c #0E0B00",
"o  c #060805",
"O  c #140304",
"+  c #1B0303",
"@  c #140A03",
"#  c #180809",
"$  c #041500",
"%  c #0B1302",
"&  c #0D1B00",
"*  c #001E00",
"=  c #141400",
"-  c #1A140B",
";  c #1B1907",
":  c #190C16",
">  c #1C1415",
",  c #191814",
"<  c #240C00",
"1  c #250B0A",
"2  c #211600",
"3  c #2B1204",
"4  c #201C0A",
"5  c #2B1909",
"6  c #301D0A",
"7  c #341709",
"8  c #230D13",
"9  c #310E13",
"0  c #221314",
"q  c #211B15",
"w  c #241618",
"e  c #231B1C",
"r  c #2D1A19",
"t  c #331B1B",
"y  c #391819",
"u  c #310504",
"i  c #0C2101",
"p  c #052700",
"a  c #15240B",
"s  c #1B230C",
"d  c #1B2804",
"f  c #0E3101",
"g  c #1F320C",
"h  c #1B2913",
"j  c #31210D",
"k  c #322207",
"l  c #2B320B",
"z  c #34300D",
"x  c #2B2A14",
"c  c #292618",
"v  c #35211B",
"b  c #3A2718",
"n  c #392919",
"m  c #243718",
"M  c #343B15",
"N  c #23260B",
"B  c #281A25",
"V  c #321D25",
"C  c #321C2C",
"Z  c #2B2726",
"A  c #332626",
"S  c #253626",
"D  c #333629",
"F  c #372535",
"G  c #3B3338",
"H  c #41220F",
"J  c #452E13",
"K  c #422D28",
"L  c #463D24",
"P  c #402D3B",
"I  c #453837",
"U  c #384529",
"Y  c #4D5130",
"T  c #4A3B46",
"R  c #58564F",
"E  c #544F4E",
"W  c #60504F",
"Q  c #624F53",
"!  c #625A53",
"~  c #625B5E",
"^  c #665559",
"/  c #755A5F",
"(  c #556456",
")  c #66635C",
"_  c #6D685F",
"`  c #6C5B62",
"'  c #655664",
"]  c #745B6B",
"[  c #674B71",
"{  c #6B6164",
"}  c #6D656A",
"|  c #6A6866",
" . c #736364",
".. c #796967",
"X. c #74656C",
"o. c #736A6D",
"O. c #7C6C6B",
"+. c #776969",
"@. c #7E726E",
"#. c #776A74",
"$. c #7C7372",
"%. c #78787A",
"&. c #6B7668",
"*. c #B97A57",
"=. c #815E73",
"-. c #82676E",
";. c #87746E",
":. c #827474",
">. c #84757B",
",. c #847A7B",
"<. c #897D7B",
"1. c #8A7875",
"2. c #806A75",
"3. c #778776",
"4. c #89827F",
"5. c #898677",
"6. c #95887D",
"7. c #86836A",
"8. c #A4867A",
"9. c #F7AB79",
"0. c #796F85",
"q. c #847B83",
"w. c #8C7F83",
"e. c #857D8B",
"r. c #8B778A",
"t. c #947D82",
"y. c #917990",
"u. c #84618A",
"i. c #AF7B81",
"p. c #5487FF",
"a. c #8C8283",
"s. c #888986",
"d. c #928484",
"f. c #978789",
"g. c #8E9C8A",
"h. c #99938A",
"j. c #8D8B9F",
"k. c #8A8595",
"l. c #948B92",
"z. c #928D9D",
"x. c #9B8E9E",
"c. c #958796",
"v. c #949497",
"b. c #B99189",
"n. c #B4939C",
"m. c #A4988F",
"M. c #93A293",
"N. c #AEA989",
"B. c #BAA88C",
"V. c #BCB789",
"C. c #BBA795",
"Z. c #BFBB95",
"A. c #8A8DA5",
"S. c #8B88A5",
"D. c #9695A7",
"F. c #9592AD",
"G. c #A99EAC",
"H. c #A294AB",
"J. c #A39DB1",
"K. c #A5A3A9",
"L. c #C9979D",
"P. c #C5989C",
"I. c #D2959E",
"U. c #C28E91",
"Y. c #C3AF9E",
"T. c #CABD97",
"R. c #C89DA4",
"E. c #D39DA4",
"W. c #C9A4A7",
"Q. c #CEA0A9",
"!. c #C4A9A7",
"~. c #DCA7AD",
"^. c #D4A8A7",
"/. c #CAB5A9",
"(. c #D4BDA5",
"). c #D7B5AF",
"_. c #DBACB2",
"`. c #D4B3BA",
"'. c #E1AFB0",
"]. c #EBB8B7",
"[. c #D9C9BC",
"{. c #D6CDA9",
"}. c #E7C0AF",
"|. c #E4C5BF",
" X c #E7C7B9",
".X c #F0CCBD",
"XX c #F1DCBF",
"oX c #E1D5A6",
"OX c #EDE0AD",
"+X c #E0E2BB",
"@X c #A8AAC0",
"#X c #DCD7C9",
"$X c #D8CECD",
"%X c #EBCEC4",
"&X c #E7CDCD",
"*X c #F5CAC9",
"=X c #FFCFCC",
"-X c #F5CBC5",
";X c #F3D3CA",
":X c #FEDDCD",
">X c #F7D6CB",
",X c #F7CAD3",
"<X c #FFDDDA",
"1X c #F9D7D3",
"2X c #E8D4D2",
"3X c #FDE6CE",
"4X c #FAE9C8",
"5X c #FFEBDD",
"6X c #F9E8D7",
"7X c #FDFCD2",
"8X c #FEF2DC",
"9X c #FFFFDB",
"0X c #E8EECC",
"qX c #DFD8E6",
"wX c #F0D8E2",
"eX c #E6E5E6",
"rX c #F6E8EA",
"tX c #FEFCE4",
"yX c #FAF4E8",
"uX c #F5EDFB",
"iX c #EAF1F9",
"pX c #E6F6F2",
"aX c #F7F5FB",
"sX c #FFF5FE",
"dX c #FFFCFE",
"fX c #FAFFF5",
"gX c None",
/* pixels */
"gXgXgXgXgXgXgXgXgXgXgXgXgXgXgXgXgXgXgXgXgXgXM d Y z = d gXgXgXgXgXgXgXgXgXgXgXgXgXgXgXgXgXgXgXgX",
"gXgXgXgXgXgXgXgXgXgXgXgXgXgXgXgXgXgXgX$ l 4 6.6.f...Q 1.n N gXgXgXgXgXgXgXgXgXgXgXgXgXgXgXgXgXgX",
"gXgXgXgXgXgXgXgXgXgXgXgXgXgXgXgXgXgXm 3.~ g.3.3.$.%.s.s.( 3.m gXgXgXgXgXgXgXgXgXgXgXgXgXgXgXgXgX",
"gXgXgXgXgXgXgXgXgXgXgXgXgXgXgXgXgXg ) ` y.<.;.<.1.O.d.r c ; ; a gXgXgXgXgXgXgXgXgXgXgXgXgXgXgXgX",
"gXgXgXgXgXgXgXgXgXgXgXgXgXgXgXgXgX- <.@.{ 5.! ) W W I m.[.8X#Xw - gXgXgXgXgXgXgXgXgXgXgXgXgXgXgX",
"gXgXgXgXgXgXgXgXgXgXgXgXgXgXgXgXA #.W s., D - $.Q + t C.{.N.Z.6Xc $ gXgXgXgXgXgXgXgXgXgXgXgXgXgX",
"gXgXgXgXgXgXgXgXgXgXgXgXgXgXgXs o./ ..v eXG o.B I /.7 3 4X4XZ.N.#X& i gXgXgXgXgXgXgXgXgXgXgXgXgX",
"gXgXgXgXgXgXgXgXgXgXgXgXgXgXgX% #.<.t @ h rX@ !.1X;X8.Y.< 0XoXZ.x s i gXgXgXgXgXgXgXgXgXgXgXgXgX",
"gXgXgXgXgXgXgXgXgXgXgXgXgXgXgXa  .r Y.tX7.; [./.%XrX5XU.^.y 4X9XV.; l gXgXgXgXgXgXgXgXgXgXgXgXgX",
"gXgXgXgXgXgXgXgXgXgXgXgXgXgXgXm ) v {.B.z 8XY.3X8X].=X=X_.Q.y 4XOX7X+XU gXgXgXgXgXgXgXgXgXgXgXgX",
"gXgXgXgXgXgXgXgXgXgXgXgXgXgXgXgX; 5.L 2 0XB.(.4X4X*.*.*.=X,X*.H J 7X7X0Xp gXgXgXgXgXgXgXgXgXgXgX",
"gXgXgXgXgXgXgXgXgXgXgXgXgXgXm h.@...@ 6Xn 8X(.(. X8XY fX1XyX,X).5 h & gXgXgXgXgXgXgXgXgXgXgXgXgX",
"gXgXgXgXgXgXgXgXgXgXgXgXgXgXD  .r.] + ).Y.8.4X.X>X6Xp.[.|.<X1Xy @ gXgXgXgXgXgXgXgXgXgXgXgXgXgXgX",
"gXgXgXgXgXgXgXgXgXgXgXgXgXgXx l.[ u.] K T.3 >X=X=X%X3X;X*X=X^.3 ; gXgXgXgXgXgXgXgXgXgXgXgXgXgXgX",
"gXgXgXgXgXgXgXgXgXgXgXgXgXgX% %.u.' ] b oX+ b -X=X=X;X).9.9.%Xk & gXgXgXgXgXgXgXgXgXgXgXgXgXgXgX",
"gXgXgXgXgXgXgXgXgXgXgXgXgXgXgXm R ) &.Y l j |.b b <X.XrX=X X< gXgXgXgXgXgXgXgXgXgXgXgXgXgXgXgXgX",
"gXgXgXgXgXgXgXgXgXgXgXgXgXgXgXgXgXgXgXgXgX; K ~._.u 1 b < 8.b gXgXgXgXgXgXgXgXgXgXgXgXgXgXgXgXgX",
"gXgXgXgXgXgXgXgXgXgXgXgXgXgXgXgXgXgXgXgXx G.x.  n.Q.i.y 9 1 gXgXgXgXgXgXgXgXgXgXgXgXgXgXgXgXgXgX",
"gXgXgXgXgXgXgXgXgXgXgXgXgXgXgXgXgXgXgX= 2XsXr.sX  ,X`.`...V gXgXgXgXgXgXgXgXgXgXgXgXgXgXgXgXgXgX",
"gXgXgXgXgXgXgXgXgXgXgXgXgXgXgXgXgXgX& 5XrXwX8 f.2X  fX$X  yXi gXgXgXgXgXgXgXgXgXgXgXgXgXgXgXgXgX",
"gXgXgXgXgXgXgXgXgXgXgXgXgXgXgXgXgXgXX 1X=XW.F f.dXdX      fX& gXgXgXgXgXgXgXgXgXgXgXgXgXgXgXgXgX",
"gXgXgXgXgXgXgXgXgXgXgXgXgXgXgXgXgXgX7 *XE.`.C #.%.dXiXiXiXiXK.  gXgXgXgXgXgXgXgXgXgXgXgXgXgXgXgX",
"gXgXgXgXgXgXgXgXgXgXgXgXgXgXgXgXgX4 %X1Xi.n.G y.D.@XA.A.j.j.K.% gXgXgXgXgXgXgXgXgXgXgXgXgXgXgXgX",
"gXgXgXgXgXgXgXgXgXgXgXgXgXgXgXgXgX% [.~.U.O x.J.F.F.S.S.j.j.> gXgXgXgXgXgXgXgXgXgXgXgXgXgXgXgXgX",
"gXgXgXgXgXgXgXgXgXgXgXgXgXgXgXgXgX5 *X~.L.C H.F.F.S.F.j.e.e.q gXgXgXgXgXgXgXgXgXgXgXgXgXgXgXgXgX",
"gXgXgXgXgXgXgXgXgXgXgXgXgXgXgXgXgX2 *XL.R.C A x.#.0.D.0.D.rXI | M gXgXgXgXgXgXgXgXgXgXgXgXgXgXgX",
"gXgXgXgXgXgXgXgXgXgXgXgXgXgXgXgXgX5 *XL.E.r #.O : z.aXdXdX0 q A   gXgXgXgXgXgXgXgXgXgXgXgXgXgXgX",
"gXgXgXgXgXgXgXgXgXgXgXgXgXgXgXgXgXk L.E.R.1 :.+.l.s.e a.! r f.5 h.  gXgXgXgXgXgXgXgXgXgXgXgXgXgX",
"gXgXgXgXgXgXgXgXgXgXgXgXgXgXgXgXgX6 E.E.U.+ K O.^ Y $.  6.-  .t w.  gXgXgXgXgXgXgXgXgXgXgXgXgXgX",
"gXgXgXgXgXgXgXgXgXgXgXgXgXgXgXgXgX6 '.E.~.2Xt ;.$.. h.  m.@ > ` f.    gXgXgXgXgXgXgXgXgXgXgXgXgX",
"gXgXgXgXgXgXgXgXgXgXgXgXgXgXgXgXgX< ].I.E.W.&X9 : w ,.:.h.@ > +.>.a.  gXgXgXgXgXgXgXgXgXgXgXgXgX",
"gXgXgXgXgXgXgXgXgXgXgXgXgXgXgXgXgXk b.~.P.R.`.1 ` V >.<.a.0 . / 2.    gXgXgXgXgXgXgXgXgXgXgXgXgX",
"gXgXgXgXgXgXgXgXgXgXgXgXgXgXgXgXgX= ;.9 9 A t.Q w > { ,.| Z . X.<.  gXgXgXgXgXgXgXgXgXgXgXgXgXgX",
"gXgXgXgXgXgXgXgXgXgXgXgXgXgXgXgXgXgXgXgXA >.d.X.#.> ~ o.{ Z ,.O 0 x gXgXgXgXgXgXgXgXgXgXgXgXgXgX",
"gXgXgXgXgXgXgXgXgXgXgXgXgXgXgXgXgXgXgXgXZ #.%.s.| e | o.v., X.O.c gXgXgXgXgXgXgXgXgXgXgXgXgXgXgX",
"gXgXgXgXgXgXgXgXgXgXgXgXgXgXgXgXgXgXgXgX  } w.q.0.~   e > ~ 4.5.m gXgXgXgXgXgXgXgXgXgXgXgXgXgXgX",
"gXgXgXgXgXgXgXgXgXgXgXgXgXgXgXgXgXgXgXgX  ` q.l.v.q.. : } l.6.h.  gXgXgXgXgXgXgXgXgXgXgXgXgXgXgX",
"gXgXgXgXgXgXgXgXgXgXgXgXgXgXgXgXgXgXgXgX  ` l.w.,.4.w { ] q.D.$.  gXgXgXgXgXgXgXgXgXgXgXgXgXgXgX",
"gXgXgXgXgXgXgXgXgXgXgXgXgXgXgXgXgXgXgXgX  ` $.d.f...q >.~ e.k.  gXgXgXgXgXgXgXgXgXgXgXgXgXgXgXgX",
"gXgXgXgXgXgXgXgXgXgXgXgXgXgXgXgXgXgXgXgX  ` ` `  . .q X.' ' )   gXgXgXgXgXgXgXgXgXgXgXgXgXgXgXgX",
"gXgXgXgXgXgXgXgXgXgXgXgXgXgXgXgXgXgXgXgX  X.` ^ X.` # B #.#.  gXgXgXgXgXgXgXgXgXgXgXgXgXgXgXgXgX",
"gXgXgXgXgXgXgXgXgXgXgXgXgXgXgXgXgXgXgXgX  T X.>.2.>.w T 8 P . gXgXgXgXgXgXgXgXgXgXgXgXgXgXgXgXgX",
"gXgXgXgXgXgXgXgXgXgXgXgXgXgXgXgXgXgXgXgXD e.` ~ o.B G e.J.sXq gXgXgXgXgXgXgXgXgXgXgXgXgXgXgXgXgX",
"gXgXgXgXgXgXgXgXgXgXgXgXgXgXgXgXgXgXgXgXU K.k.s.qXE G #.z.F.pXfX% gXgXgXgXgXgXgXgXgXgXgXgXgXgXgX",
"gXgXgXgXgXgXgXgXgXgXgXgXgXgXgXgXgXgXgXgXa %.z.dXk.sXF B e.k.D.s.h gXgXgXgXgXgXgXgXgXgXgXgXgXgXgX",
"gXgXgXgXgXgXgXgXgXgXgXgXgXgXgXgXgXgXgXgXgXS v.j.uXqXdXaXo h % i gXgXgXgXgXgXgXgXgXgXgXgXgXgXgXgX",
"gXgXgXgXgXgXgXgXgXgXgXgXgXgXgXgXgXgXgXgXgXgXS M.s.g.&.g.m gXgXgXgXgXgXgXgXgXgXgXgXgXgXgXgXgXgXgX",
"gXgXgXgXgXgXgXgXgXgXgXgXgXgXgXgXgXgXgXgXgXgXgXp p a $ f gXgXgXgXgXgXgXgXgXgXgXgXgXgXgXgXgXgXgXgX"
};
