/* XPM */
static char *wall1672141747[] = {
/* columns rows colors chars-per-pixel */
"48 48 83 1 ",
"  c None",
". c #4F2913",
"X c #4F311E",
"o c #53321E",
"O c #56321C",
"+ c #4F3625",
"@ c #543523",
"# c #543624",
"$ c #553726",
"% c #553827",
"& c #5A3B27",
"* c #5E3B25",
"= c #563B2A",
"- c #573C2D",
"; c #573D2D",
": c #593D2A",
"> c #573F30",
", c #5B4231",
"< c #584132",
"1 c #594133",
"2 c #5A4335",
"3 c #5A4336",
"4 c #5A4436",
"5 c #5A4437",
"6 c #5B4639",
"7 c #5A4739",
"8 c #5B473A",
"9 c #5B483B",
"0 c #5B493C",
"q c #5C493D",
"w c #5C4B3E",
"e c #5C4B3F",
"r c #624937",
"t c #5D4D41",
"y c #5D4D42",
"u c #5E4F44",
"i c #5E4F45",
"p c #5A5046",
"a c #5C5147",
"s c #5E5146",
"d c #5C5247",
"f c #5D5247",
"g c #5D5248",
"h c #5F5349",
"j c #655444",
"k c #665444",
"l c #675544",
"z c #615851",
"x c #655C55",
"c c #655D56",
"v c #665F58",
"b c #666057",
"n c #676159",
"m c #676259",
"M c #68625A",
"N c #68635A",
"B c #69635B",
"V c #69645B",
"C c #6A645C",
"Z c #6A655C",
"A c #6B655D",
"S c #6A665C",
"D c #6B665D",
"F c #6B675D",
"G c #6B665E",
"H c #6C675E",
"J c #6C675F",
"K c #6C685E",
"L c #6D685F",
"P c #6D6860",
"I c #6F6A62",
"U c #6F6B62",
"Y c #706B62",
"T c #706B63",
"R c #706C63",
"E c #746F67",
"W c #767469",
"Q c #868579",
"! c #86847B",
"~ c #918F88",
"^ c #929088",
"/ c #94928B",
"( c #99978F",
/* pixels */
"&&&&&&&&&&&& &&&&&&&&&&&&&&&&&&&&&&& &&&&&&&&&&&",
"QQQQQQQQQQQQrQQQQQQQQQQQQQQQQQQQQQQQrQQQQQQQQQQQ",
"QQQQQQQQQQQQlQQQQQQQQQQQQQQQQQQQQQQQlQQQQQQQQQQQ",
"~~~~~~~~^/((l(((///^////~~~~~~~~^/((l(((///^////",
"LLLLLLLLLLLL,LHHPPPHHHHHLLLLHHPLLLLL,LHHPPPHHHHH",
"LLLLLLKLHHHH,LLHLLHHHHHHLLLLHPLLHHHH,LHHLLHHHHHH",
"LKHLLHKKHHHH,SHHKSHHHHHHLKLKLLLLHHHH,SHHKSHHHHHH",
"SSHSSHSSHSHS,HSHSSSSSSVSLVLVFVHVHSHS,HHSSSSSSSVS",
"SSCSSCSCSCHC:SSSCCSSNPNPVVSSSSSCSCSS-HSSDVVVVDVV",
"SSSCCSCSCSCCoVCMBBCNNNNNVFVVSSCSSSCCOMVVMVVVVVVV",
"CMCMMSSMSMMMoMMMBBNNNNNNVVVVMMMCNSNn@MMMVMVMVMMV",
"nnnMnMnMMVMMoMMMnBBNNNNNVbnnMMMMnNNnovMMMMMMVMVM",
"nnnnnnnnnnnnonnnnnnnnnnnnnbbMMnnnnnnonnnMnnnMMMn",
"............d.......................p...........",
"ddddddddddddddddiXppppppppppppiippppppppiXdddddh",
"ddddddddddddddddp+pppppppppppppppppppppppodddddp",
"ddddddaaddddddaap+ppppppppppppppppppppppp+aahphh",
"dddddddadddddddap+ppppppppppppppppppppppp+aadadd",
"ddddddaaddddddaad+pppppipppppppppppappppp+addhaa",
"nnnnnnnnnnnnnnnnn#zzzzzzzzzzzzzzzzzzzzzzz#nnnnnn",
"ddjdttgghhhhgg<>=%%%<1165666zzzaahhgaa<<=%%ahhah",
"LLPHtSPSPPPKPPPPPKPKSPPIRRPUzz<IIPPPPPPPPPPPPPPP",
"nnnntnnnnnnnnnnnnnnnnnnnnnnn<InnnnnnBvnnbnnnbnnn",
"nnnntnnnnnnnnnnnnnnnnnnnnnnn<nnnnnnnnnnnbnnnnnnn",
"nnnnynnnnnnnnnnnnnnnnnbvnnnn,nnnvnnnnnnnnnnnnnnn",
"nnnn<nnnnnnnnnnnnnnnnbBBnnnn<nnnBbnnnnvBnnnnnnnn",
"nnnn>MnncMnvnBvnnnBvnnBvnnnn>nnnBvvBnBbbnnnnnnnn",
"60--@$-gzggagjg09i00hgjg99--%$-ghhhjghh90y09hhhg",
"vvvvvvvvvvvvvvvvvtvvvvvvvvvvcvvvvvvvvvvvvecvvvvv",
"vvvvvvvvvvvvvvvvv0vvvvvvvvvvvvvvvvvvvvvvvevvvvvv",
"vvvvvvvvvvvvvvvvvixvvvvvvvvvvvvvvvvvvvvvvuccvvnc",
"vvvvvvvvvvvvvvvvvivvvvvvvvvvvvvvvvvvvvvvvuvnvvvn",
"vvvvvvvvvvvvvvvvv@vvvvvvvvvvvvvvvvvvvvvvv+vvvvvv",
"vvcvvvvvvvvvvvvvv@vvvvvvvvxvvvvvvvvvvvvvx@vvvvvv",
"PSHP9RETEEETEEEEEEETEIEEETEE0PPPNPPPPPPPPPSPPPPP",
"vvvvtPPPPPPPPPPPPPPPPPPPPPPP0vvvvvvvvvvvvvvvxvvx",
"vvvvePPPPPPPPBPPCPPPSPSPPPBPtxvvvvvvvvvvvvvvvvvv",
"vvvvjSBPPPBPPPPPPPPCPPPPPPPPavvvvvvvvvvvvvvvvvvv",
"vvvv>PPPnPBPPBBPCPCPPPSPBPPP<vvvvvvvvvvvvvvvvvvv",
"vvvv>PPPPPPPPPPPPPPPPSPSPPBP>vvvvvvvvvvvvvvvvvvv",
"OOOOOOOOXooOCOOOoOOOOOOOOOOOOOOOOOOOnOOOooOOOOOO",
"WWWWWWWWWWWW*WWWWWWWWWWWWWWWWWWWWWWW&WWWWWWWWWWW",
"WWWWWWWWWWWWjWWWWWWWWWWWWWWWWWWWWWWWjWWWWWWWWWWW",
"WWWWWWWWWWWWjWWWWWWWWWWWWWWWWWWWWWWWjWWWWWWWWWWW",
"!Q!!Q!!Q!Q!QjQ!!!!!!!Q!Q!Q!!Q!!QQQ!!jQ!!!Q!QQQ!!",
"nbnvbbncvnvbjcvvbbbbncnbvncvbbnbcncnlbncvbvbvvvv",
"bbcbbbbbcnbb.bbbbbbbbbbbbbnbbbbbbbbb.bbbncbbbbcn",
"................................................"
};
